<svg id="Layer_1" enable-background="new 0 0 24 24" height="24px" version="1.1" viewbox="0 0 24 24" width="24px" xml:space="preserve" style="fill: white" xmlns="http://www.w3.org/2000/svg" xmlns:xlink="http://www.w3.org/1999/xlink">
  <g>
    <path d="M23,9c-0.6,0-1,0.4-1,1v3H2v-3c0-0.6-0.4-1-1-1s-1,0.4-1,1v13c0,0.5,0.4,1,1,1H1c0.5,0,1-0.4,1-1v-5h20v5c0,0.5,0.4,1,1,1   H23c0.5,0,1-0.4,1-1V10C24,9.4,23.6,9,23,9z M22,15v1H2v-1v-1h20V15z"></path>
    <path d="M8,8c1.5,0,2.9,0.5,4,1.3C13.1,8.5,14.5,8,16,8c1.9,0,3.6,0.8,4.9,2H21V5c0-0.6-0.4-1-1-1s-1,0.4-1,1v2H5V5   c0-0.6-0.4-1-1-1S3,4.4,3,5v5h0.1C4.4,8.8,6.1,8,8,8z"></path>
  </g>
</svg>