<svg id="Layer_1" enable-background="new 0 0 24 24" height="24px" version="1.1" viewbox="0 0 24 24" width="24px" xml:space="preserve" xmlns="http://www.w3.org/2000/svg" style="fill: white" xmlns:xlink="http://www.w3.org/1999/xlink">
  <g>
    <path d="M21,0H2C1.4,0,1,0.4,1,1v23h21V1C22,0.4,21.6,0,21,0z M3,2h8v18H3V2z M3,22v-1h8v1H3z M20,22h-8v-1h8V22z M20,20h-8V2h8V20   z"></path>
    <path d="M9.5,8C9.2,8,9,8.2,9,8.5v7C9,15.8,9.2,16,9.5,16s0.5-0.2,0.5-0.5v-7C10,8.2,9.8,8,9.5,8z"></path>
    <path d="M13.5,16c0.3,0,0.5-0.2,0.5-0.5v-7C14,8.2,13.8,8,13.5,8S13,8.2,13,8.5v7C13,15.8,13.2,16,13.5,16z"> </path>
  </g>
</svg>