<svg id="Layer_1" enable-background="new 0 0 24 24" height="24px" version="1.1" viewbox="0 0 24 24" width="24px" xml:space="preserve"  style="fill: white" xmlns="http://www.w3.org/2000/svg" xmlns:xlink="http://www.w3.org/1999/xlink">
  <path d="M22,12v-2c0-5.5-4.5-10-10-10S2,4.5,2,10v2h3v3.1c-0.6,0.2-1,0.8-1,1.4C4,17.3,4.7,18,5.5,18S7,17.3,7,16.5  c0-0.7-0.4-1.2-1-1.4V12h4v9H9c-0.6,0-1,0.4-1,1v2h8v-2c0-0.6-0.4-1-1-1h-1v-9H22z M5.5,17C5.2,17,5,16.8,5,16.5S5.2,16,5.5,16  S6,16.2,6,16.5S5.8,17,5.5,17z M12,2c3.4,0,6.2,2.1,7.4,5H4.6C5.8,4.1,8.6,2,12,2z M4,10c0-0.7,0.1-1.4,0.3-2h15.5  c0.2,0.6,0.3,1.3,0.3,2H4z M15,22v1H9v-1h2V12h2v10H15z"></path>
</svg>