<svg id="Layer_1" enable-background="new 0 0 24 24" height="24px" version="1.1" viewbox="0 0 24 24" width="24px" xml:space="preserve" style="fill: white" xmlns="http://www.w3.org/2000/svg" xmlns:xlink="http://www.w3.org/1999/xlink">
  <path d="M23,7H1C0.4,7,0,7.4,0,8s0.4,1,1,1h8v1c0,0.6,0.4,1,1,1v4.3c-3.4,0.9-6,4-6,7.7v1h3v-1c0-2,1.2-3.8,3-4.6V24h4v-5.6  c1.8,0.8,3,2.5,3,4.6v1h3v-1c0-3.7-2.6-6.8-6-7.7V11c0.6,0,1-0.4,1-1V9h8c0.6,0,1-0.4,1-1S23.6,7,23,7z M14,16.3  c2.9,0.9,5,3.5,5,6.7h-1c0-2.6-1.7-4.8-4-5.7l-1-0.1V23h-2v-5.8l-1,0.1c-2.3,0.8-4,3-4,5.7H5c0-3.2,2.1-5.8,5-6.7l1-0.1V11h2v5.1  L14,16.3z M14,10h-4V9h4V10z"></path>
</svg>